<?xml version="1.0" encoding="utf-8"?>
<!-- Generator: Adobe Illustrator 16.0.4, SVG Export Plug-In . SVG Version: 6.00 Build 0)  -->
<!DOCTYPE svg PUBLIC "-//W3C//DTD SVG 1.1//EN" "http://www.w3.org/Graphics/SVG/1.1/DTD/svg11.dtd">
<svg version="1.1" id="Layer_1" xmlns="http://www.w3.org/2000/svg" xmlns:xlink="http://www.w3.org/1999/xlink" x="0px" y="0px"
	 width="132px" height="84px" viewBox="0 0 132 84" enable-background="new 0 0 132 84" xml:space="preserve">
<g>
	<path fill="#21242D" d="M41.925,33.684v16.634c0,0,16.107-0.021,22.665-0.021C61.038,61.079,55.517,66.95,41.925,66.95
		c-13.756,0-24.491-11.17-24.491-24.95c0-13.779,10.735-24.95,24.491-24.95c7.271,0,11.969,2.561,16.277,6.13
		c3.448-3.455,3.16-3.947,11.933-12.248C62.688,4.141,52.789,0,41.925,0C18.771,0,0,18.804,0,42c0,23.196,18.771,42,41.925,42
		c34.608,0,43.067-30.189,40.263-50.316H41.925z"/>
	<polygon fill="#21242D" points="117.471,34.515 117.471,19.961 107.094,19.961 107.094,34.515 92.15,34.515 92.15,44.911 
		107.094,44.911 107.094,59.882 117.471,59.882 117.471,44.911 132,44.911 132,34.515 	"/>
</g>
</svg>
