<?xml version="1.0" encoding="utf-8"?>
<!-- Generator: Adobe Illustrator 16.0.4, SVG Export Plug-In . SVG Version: 6.00 Build 0)  -->
<!DOCTYPE svg PUBLIC "-//W3C//DTD SVG 1.1//EN" "http://www.w3.org/Graphics/SVG/1.1/DTD/svg11.dtd">
<svg version="1.1" id="Layer_1" xmlns="http://www.w3.org/2000/svg" xmlns:xlink="http://www.w3.org/1999/xlink" x="0px" y="0px"
	 width="88px" height="80px" viewBox="0 0 88 80" enable-background="new 0 0 88 80" xml:space="preserve">
<g id="LinkedIn_1_">
	<rect x="2.22" y="25.654" fill="#21242D" width="17.151" height="54.346"/>
	<path fill="#21242D" d="M66.233,25.132c-9.826,0-15.982,5.322-17.121,9.052v-8.529H29.844c0.248,4.528,0,54.346,0,54.346h19.268
		V50.59c0-1.633-0.078-3.268,0.418-4.441c1.326-3.268,4.172-6.658,9.289-6.658c6.689,0,9.732,5.025,9.732,12.387V80H88V49.782
		C88,32.949,78.422,25.132,66.233,25.132z"/>
	<path fill="#21242D" d="M10.478,0C4.144,0,0,4.068,0,9.436c0,5.266,4.025,9.42,10.234,9.42h0.124
		c6.447,0,10.462-4.169,10.462-9.436C20.696,4.058,16.806,0,10.478,0z"/>
</g>
</svg>
