<?xml version="1.0" encoding="utf-8"?>
<!-- Generator: Adobe Illustrator 16.0.4, SVG Export Plug-In . SVG Version: 6.00 Build 0)  -->
<!DOCTYPE svg PUBLIC "-//W3C//DTD SVG 1.1//EN" "http://www.w3.org/Graphics/SVG/1.1/DTD/svg11.dtd">
<svg version="1.1" id="Layer_1" xmlns="http://www.w3.org/2000/svg" xmlns:xlink="http://www.w3.org/1999/xlink" x="0px" y="0px"
	 width="96px" height="80px" viewBox="0 0 96 80" enable-background="new 0 0 96 80" xml:space="preserve">
<path id="Twitter_1_" fill="#21242D" d="M93.352,1.479c-3.811,2.312-8.02,3.993-12.516,4.895C77.252,2.45,72.131,0,66.461,0
	C55.592,0,46.775,9.043,46.775,20.195c0,1.583,0.168,3.121,0.506,4.6C30.912,23.951,16.402,15.919,6.683,3.687
	C4.986,6.68,4.017,10.152,4.017,13.851c0,7.003,3.477,13.187,8.762,16.809c-3.223-0.098-6.266-1.017-8.924-2.519v0.248
	c0,9.789,6.789,17.953,15.805,19.802c-1.65,0.475-3.393,0.711-5.189,0.711c-1.268,0-2.508-0.121-3.709-0.357
	c2.508,8.02,9.777,13.861,18.398,14.018c-6.738,5.42-15.236,8.65-24.461,8.65c-1.588,0-3.16-0.094-4.699-0.277
	C8.716,76.656,19.074,80,30.191,80c36.231,0,56.038-30.768,56.038-57.458c0-0.878-0.018-1.756-0.051-2.617
	c3.848-2.849,7.189-6.402,9.822-10.453c-3.527,1.606-7.326,2.693-11.311,3.178C88.758,10.152,91.881,6.195,93.352,1.479z"/>
</svg>
