<?xml version="1.0" encoding="utf-8"?>
<!-- Generator: Adobe Illustrator 16.0.4, SVG Export Plug-In . SVG Version: 6.00 Build 0)  -->
<!DOCTYPE svg PUBLIC "-//W3C//DTD SVG 1.1//EN" "http://www.w3.org/Graphics/SVG/1.1/DTD/svg11.dtd">
<svg version="1.1" id="Layer_1" xmlns="http://www.w3.org/2000/svg" xmlns:xlink="http://www.w3.org/1999/xlink" x="0px" y="0px"
	 width="347px" height="200px" viewBox="0 0 347 200" enable-background="new 0 0 347 200" xml:space="preserve">
<path fill="#FFFFFF" d="M665.957,189.174c0,0.825-0.67,1.495-1.494,1.495c-0.828,0-1.496-0.67-1.496-1.495
	c0-0.826,0.668-1.494,1.496-1.494C665.287,187.68,665.957,188.348,665.957,189.174"/>
<line fill="none" stroke="#231F20" x1="665.191" y1="188.417" x2="663.732" y2="189.876"/>
<line fill="none" stroke="#231F20" x1="663.707" y1="188.417" x2="665.191" y2="189.902"/>
<g>
	<circle fill="#FF605F" cx="173.5" cy="99.543" r="95.543"/>
	<g>
		<g>
			<defs>
				<rect id="SVGID_1_" x="73.5" y="4" width="200" height="200"/>
			</defs>
			<clipPath id="SVGID_2_">
				<use xlink:href="#SVGID_1_"  overflow="visible"/>
			</clipPath>
			<path clip-path="url(#SVGID_2_)" fill="#F6E5D3" d="M208.645,62.082V48.866c0-3.833-0.616-7.522-1.752-10.977h-66.784
				c-1.136,3.455-1.752,7.143-1.752,10.977v13.216c-5.959,0-10.791,4.833-10.791,10.793c0,5.961,4.831,10.793,10.791,10.793
				c0.024,0,0.051-0.002,0.077-0.002c0.947,14.648,10.865,26.85,24.318,31.166v33.713h21.387v-33.677
				c13.511-4.285,23.48-16.515,24.429-31.202c0.026,0,0.053,0.002,0.077,0.002c5.962,0,10.794-4.833,10.794-10.793
				C219.438,66.915,214.605,62.082,208.645,62.082"/>
		</g>
		<g>
			<defs>
				<rect id="SVGID_3_" x="73.5" y="4" width="200" height="200"/>
			</defs>
			<clipPath id="SVGID_4_">
				<use xlink:href="#SVGID_3_"  overflow="visible"/>
			</clipPath>
			<path clip-path="url(#SVGID_4_)" fill="#52382E" d="M139.553,90.296c3.916,15.093,17.629,26.237,33.947,26.237
				s30.033-11.145,33.949-26.237H139.553z"/>
		</g>
		<g>
			<defs>
				<rect id="SVGID_5_" x="73.5" y="4" width="200" height="200"/>
			</defs>
			<clipPath id="SVGID_6_">
				<use xlink:href="#SVGID_5_"  overflow="visible"/>
			</clipPath>
			<path clip-path="url(#SVGID_6_)" fill="#52382E" d="M162.406,70.905c0,1.942-1.574,3.517-3.519,3.517
				c-1.94,0-3.516-1.575-3.516-3.517c0-1.943,1.574-3.517,3.516-3.517C160.832,67.388,162.406,68.962,162.406,70.905"/>
		</g>
		<g>
			<defs>
				<rect id="SVGID_7_" x="73.5" y="4" width="200" height="200"/>
			</defs>
			<clipPath id="SVGID_8_">
				<use xlink:href="#SVGID_7_"  overflow="visible"/>
			</clipPath>
			<path clip-path="url(#SVGID_8_)" fill="#52382E" d="M191.629,70.905c0,1.942-1.576,3.517-3.518,3.517
				c-1.943,0-3.517-1.575-3.517-3.517c0-1.943,1.572-3.517,3.517-3.517C190.053,67.388,191.629,68.962,191.629,70.905"/>
		</g>
		<g>
			<defs>
				<rect id="SVGID_9_" x="73.5" y="4" width="200" height="200"/>
			</defs>
			<clipPath id="SVGID_10_">
				<use xlink:href="#SVGID_9_"  overflow="visible"/>
			</clipPath>
			<path clip-path="url(#SVGID_10_)" fill="#F5AD95" d="M173.5,97.086c-3.053,0-5.717-1.659-7.143-4.125
				c-0.701,1.214-1.105,2.623-1.105,4.125c0,4.557,3.691,8.25,8.248,8.25s8.25-3.693,8.25-8.25c0-1.502-0.404-2.91-1.107-4.125
				C179.219,95.427,176.553,97.086,173.5,97.086"/>
		</g>
		<g>
			<defs>
				<rect id="SVGID_11_" x="73.5" y="4" width="200" height="200"/>
			</defs>
			<clipPath id="SVGID_12_">
				<use xlink:href="#SVGID_11_"  overflow="visible"/>
			</clipPath>
			<polygon clip-path="url(#SVGID_12_)" fill="#F5AD95" points="169.553,86.811 173.5,74.421 177.447,86.811 			"/>
		</g>
	</g>
	<g>
		<g>
			<defs>
				<path id="SVGID_13_" d="M82.275,104.948c0,50.383,40.842,91.225,91.225,91.225c50.385,0,91.227-40.842,91.227-91.225
					c0-50.383-40.842-91.225-91.227-91.225C123.117,13.723,82.275,54.565,82.275,104.948"/>
			</defs>
			<clipPath id="SVGID_14_">
				<use xlink:href="#SVGID_13_"  overflow="visible"/>
			</clipPath>
			<path clip-path="url(#SVGID_14_)" fill="#5C68B0" d="M184.135,126.523L173.5,148.18l-10.734-21.638
				c-24.953,4.985-43.756,27.013-43.756,53.431c0,30.094,24.396,54.49,54.49,54.49c30.096,0,54.49-24.396,54.49-54.49
				C227.99,153.52,209.137,131.469,184.135,126.523"/>
		</g>
	</g>
	<rect x="171.525" y="148.18" fill="#4E5897" width="3.948" height="47.907"/>
	<path fill="#FFFFFF" d="M174.996,151.062c0,0.826-0.67,1.496-1.496,1.496s-1.494-0.67-1.494-1.496c0-0.824,0.668-1.494,1.494-1.494
		S174.996,150.236,174.996,151.062"/>
	<line fill="none" stroke="#231F20" x1="174.23" y1="150.309" x2="172.771" y2="151.768"/>
	<line fill="none" stroke="#231F20" x1="172.744" y1="150.309" x2="174.23" y2="151.792"/>
	<path fill="#FFFFFF" d="M174.914,160.997c0,0.827-0.668,1.496-1.494,1.496s-1.496-0.669-1.496-1.496
		c0-0.825,0.67-1.495,1.496-1.495S174.914,160.172,174.914,160.997"/>
	<line fill="none" stroke="#231F20" x1="174.15" y1="160.242" x2="172.689" y2="161.702"/>
	<line fill="none" stroke="#231F20" x1="172.664" y1="160.242" x2="174.15" y2="161.729"/>
	
		<rect x="151.647" y="134.314" transform="matrix(-0.4359 -0.9 0.9 -0.4359 113.4395 345.3553)" fill="#4E5897" width="26.603" height="5.627"/>
	
		<rect x="168.439" y="134.311" transform="matrix(0.4359 -0.9 0.9 0.4359 -20.8929 240.9138)" fill="#4E5897" width="26.603" height="5.627"/>
	<polygon fill="#4E5897" points="161.961,168.918 153.877,173.918 145.791,168.918 145.791,153.919 161.961,153.919 	"/>
	<polygon fill="#545FA1" points="162.008,153.919 153.832,159.102 145.656,153.919 	"/>
	<path fill="#FFFFFF" d="M155.371,156.169c0,0.826-0.67,1.495-1.494,1.495c-0.826,0-1.496-0.669-1.496-1.495s0.67-1.495,1.496-1.495
		C154.701,154.674,155.371,155.343,155.371,156.169"/>
	<line fill="none" stroke="#231F20" x1="154.605" y1="155.414" x2="153.146" y2="156.872"/>
	<line fill="none" stroke="#231F20" x1="153.121" y1="155.414" x2="154.605" y2="156.898"/>
	<polygon fill="#4E5897" points="200.988,168.918 192.902,173.918 184.816,168.918 184.816,153.919 200.988,153.919 	"/>
	<polygon fill="#545FA1" points="201.035,153.919 192.857,159.102 184.682,153.919 	"/>
	<path fill="#FFFFFF" d="M194.398,156.169c0,0.826-0.673,1.495-1.496,1.495c-0.826,0-1.496-0.669-1.496-1.495
		s0.67-1.495,1.496-1.495C193.727,154.674,194.398,155.343,194.398,156.169"/>
	<line fill="none" stroke="#231F20" x1="193.631" y1="155.414" x2="192.174" y2="156.872"/>
	<line fill="none" stroke="#231F20" x1="192.148" y1="155.414" x2="193.631" y2="156.898"/>
	<path fill="#FFFFFF" d="M174.996,183.238c0,0.824-0.67,1.496-1.496,1.496s-1.494-0.672-1.494-1.496
		c0-0.826,0.668-1.495,1.494-1.495S174.996,182.412,174.996,183.238"/>
	<line fill="none" stroke="#231F20" x1="174.23" y1="182.482" x2="172.771" y2="183.941"/>
	<line fill="none" stroke="#231F20" x1="172.744" y1="182.482" x2="174.23" y2="183.968"/>
	<path fill="#FFFFFF" d="M174.996,173.305c0,0.824-0.67,1.494-1.496,1.494s-1.494-0.67-1.494-1.494c0-0.828,0.668-1.496,1.494-1.496
		S174.996,172.477,174.996,173.305"/>
	<line fill="none" stroke="#231F20" x1="174.23" y1="172.547" x2="172.771" y2="174.006"/>
	<line fill="none" stroke="#231F20" x1="172.744" y1="172.547" x2="174.23" y2="174.033"/>
	<rect x="73.5" y="4" fill="none" width="200" height="200"/>
	<path fill="#52382E" d="M135.246,68.687c0-0.009-2.826-18.933,6.459-33.484c9.291-14.555,28.537-13.682,33.49-13.837
		c4.494-0.141,9.012,0.385,13.389,1.384c5.377,1.227,10.361,3.114,14.486,6.879c4.588,4.187,6.932,9.933,7.766,15.991
		c0.992,7.181,1.459,9.451,1.434,16.7c-0.008,2.122-0.043,4.255-0.262,6.367c0,0-2.57-14.377-15.764-18.683
		c-5.748-1.874-11.652,0.953-14.787,3.296c-9.061-6.917-28.018-3.242-35.877,3.396c-2.867,2.422-5.439,5.199-7.711,8.185
		C137.34,65.578,135.828,67.83,135.246,68.687"/>
</g>
</svg>
