<?xml version="1.0" encoding="utf-8"?>
<!-- Generator: Adobe Illustrator 16.0.4, SVG Export Plug-In . SVG Version: 6.00 Build 0)  -->
<!DOCTYPE svg PUBLIC "-//W3C//DTD SVG 1.1//EN" "http://www.w3.org/Graphics/SVG/1.1/DTD/svg11.dtd">
<svg version="1.1" id="Layer_1" xmlns="http://www.w3.org/2000/svg" xmlns:xlink="http://www.w3.org/1999/xlink" x="0px" y="0px"
	 width="347px" height="200px" viewBox="0 0 347 200" enable-background="new 0 0 347 200" xml:space="preserve">
<g>
	<g>
		<g>
			<g>
				<defs>
					<rect id="SVGID_1_" x="68.283" y="-12.945" width="210.434" height="210.436"/>
				</defs>
				<clipPath id="SVGID_2_">
					<use xlink:href="#SVGID_1_"  overflow="visible"/>
				</clipPath>
				<path clip-path="url(#SVGID_2_)" fill="#F6E5D3" d="M210.477,48.167V34.262c0-4.034-0.646-7.916-1.84-11.55h-70.271
					c-1.193,3.634-1.843,7.517-1.843,11.55v13.905c-6.271,0-11.354,5.085-11.354,11.356c0,6.272,5.084,11.355,11.354,11.355
					c0.027,0,0.056-0.001,0.08-0.001c0.998,15.413,11.435,28.251,25.591,32.793v35.471h22.5v-35.434
					c14.216-4.51,24.707-17.376,25.705-32.83c0.025,0,0.054,0.001,0.078,0.001c6.273,0,11.357-5.083,11.357-11.355
					C221.834,53.252,216.75,48.167,210.477,48.167"/>
			</g>
		</g>
	</g>
	<g>
		<g>
			<g>
				<defs>
					<rect id="SVGID_3_" x="68.283" y="-12.945" width="210.434" height="210.436"/>
				</defs>
				<clipPath id="SVGID_4_">
					<use xlink:href="#SVGID_3_"  overflow="visible"/>
				</clipPath>
				<path clip-path="url(#SVGID_4_)" fill="#52382E" d="M137.779,77.854c4.121,15.878,18.551,27.605,35.723,27.605
					c17.168,0,31.598-11.728,35.717-27.605H137.779z"/>
			</g>
		</g>
	</g>
	<g>
		<g>
			<g>
				<defs>
					<rect id="SVGID_5_" x="68.283" y="-12.945" width="210.434" height="210.436"/>
				</defs>
				<clipPath id="SVGID_6_">
					<use xlink:href="#SVGID_5_"  overflow="visible"/>
				</clipPath>
				<path clip-path="url(#SVGID_6_)" fill="#52382E" d="M161.826,57.45c0,2.044-1.656,3.701-3.699,3.701s-3.699-1.657-3.699-3.701
					c0-2.043,1.656-3.7,3.699-3.7S161.826,55.407,161.826,57.45"/>
			</g>
		</g>
	</g>
	<g>
		<g>
			<g>
				<defs>
					<rect id="SVGID_7_" x="68.283" y="-12.945" width="210.434" height="210.436"/>
				</defs>
				<clipPath id="SVGID_8_">
					<use xlink:href="#SVGID_7_"  overflow="visible"/>
				</clipPath>
				<path clip-path="url(#SVGID_8_)" fill="#52382E" d="M192.572,57.45c0,2.044-1.656,3.701-3.699,3.701s-3.701-1.657-3.701-3.701
					c0-2.043,1.658-3.7,3.701-3.7S192.572,55.407,192.572,57.45"/>
			</g>
		</g>
	</g>
	<g>
		<g>
			<g>
				<defs>
					<rect id="SVGID_9_" x="68.283" y="-12.945" width="210.434" height="210.436"/>
				</defs>
				<clipPath id="SVGID_10_">
					<use xlink:href="#SVGID_9_"  overflow="visible"/>
				</clipPath>
				<path clip-path="url(#SVGID_10_)" fill="#F5AD95" d="M173.502,84.997c-3.215,0-6.018-1.746-7.518-4.339
					c-0.738,1.276-1.164,2.758-1.164,4.339c0,4.794,3.887,8.68,8.682,8.68c4.791,0,8.678-3.886,8.678-8.68
					c0-1.581-0.426-3.063-1.164-4.339C179.516,83.25,176.713,84.997,173.502,84.997"/>
			</g>
		</g>
	</g>
	<g>
		<g>
			<g>
				<defs>
					<rect id="SVGID_11_" x="68.283" y="-12.945" width="210.434" height="210.436"/>
				</defs>
				<clipPath id="SVGID_12_">
					<use xlink:href="#SVGID_11_"  overflow="visible"/>
				</clipPath>
				<polygon clip-path="url(#SVGID_12_)" fill="#F5AD95" points="169.346,74.186 173.502,61.149 177.652,74.186 				"/>
			</g>
		</g>
	</g>
</g>
<g>
	<g>
		<g>
			<g>
				<defs>
					<path id="SVGID_13_" d="M77.515,93.269c0,53.011,42.975,95.985,95.986,95.985c53.01,0,95.983-42.975,95.983-95.985
						S226.51-2.716,173.501-2.716C120.488-2.716,77.515,40.258,77.515,93.269"/>
				</defs>
				<clipPath id="SVGID_14_">
					<use xlink:href="#SVGID_13_"  overflow="visible"/>
				</clipPath>
				<path clip-path="url(#SVGID_14_)" fill="#5C68B0" d="M184.689,115.97l-11.188,22.785l-11.297-22.767
					c-26.255,5.246-46.038,28.422-46.038,56.219c0,31.666,25.668,57.336,57.335,57.336c31.663,0,57.331-25.67,57.331-57.336
					C230.832,144.373,210.997,121.175,184.689,115.97"/>
			</g>
		</g>
	</g>
</g>
<g>
	<g>
		<g>
			<g>
				<defs>
					<rect id="SVGID_15_" x="68.283" y="-12.945" width="210.434" height="210.436"/>
				</defs>
				<clipPath id="SVGID_16_">
					<use xlink:href="#SVGID_15_"  overflow="visible"/>
				</clipPath>
				<rect x="171.422" y="138.755" clip-path="url(#SVGID_16_)" fill="#4E5897" width="4.156" height="50.409"/>
			</g>
		</g>
	</g>
	<g>
		<g>
			<g>
				<defs>
					<rect id="SVGID_17_" x="68.283" y="-12.945" width="210.434" height="210.436"/>
				</defs>
				<clipPath id="SVGID_18_">
					<use xlink:href="#SVGID_17_"  overflow="visible"/>
				</clipPath>
				<path clip-path="url(#SVGID_18_)" fill="#FFFFFF" d="M175.074,141.789c0,0.869-0.705,1.574-1.572,1.574
					c-0.871,0-1.576-0.705-1.576-1.574c0-0.867,0.705-1.573,1.576-1.573C174.369,140.216,175.074,140.922,175.074,141.789"/>
			</g>
		</g>
	</g>
	<g>
		<g>
			<g>
				<defs>
					<rect id="SVGID_19_" x="68.283" y="-12.945" width="210.434" height="210.436"/>
				</defs>
				<clipPath id="SVGID_20_">
					<use xlink:href="#SVGID_19_"  overflow="visible"/>
				</clipPath>
				<line clip-path="url(#SVGID_20_)" fill="none" stroke="#231F20" x1="174.268" y1="140.996" x2="172.732" y2="142.529"/>
			</g>
		</g>
	</g>
	<g>
		<g>
			<g>
				<defs>
					<rect id="SVGID_21_" x="68.283" y="-12.945" width="210.434" height="210.436"/>
				</defs>
				<clipPath id="SVGID_22_">
					<use xlink:href="#SVGID_21_"  overflow="visible"/>
				</clipPath>
				<line clip-path="url(#SVGID_22_)" fill="none" stroke="#231F20" x1="172.705" y1="140.996" x2="174.268" y2="142.559"/>
			</g>
		</g>
	</g>
	<g>
		<g>
			<g>
				<defs>
					<rect id="SVGID_23_" x="68.283" y="-12.945" width="210.434" height="210.436"/>
				</defs>
				<clipPath id="SVGID_24_">
					<use xlink:href="#SVGID_23_"  overflow="visible"/>
				</clipPath>
				<path clip-path="url(#SVGID_24_)" fill="#FFFFFF" d="M174.988,152.242c0,0.869-0.703,1.572-1.572,1.572
					s-1.574-0.703-1.574-1.572c0-0.867,0.705-1.572,1.574-1.572S174.988,151.375,174.988,152.242"/>
			</g>
		</g>
	</g>
	<g>
		<g>
			<g>
				<defs>
					<rect id="SVGID_25_" x="68.283" y="-12.945" width="210.434" height="210.436"/>
				</defs>
				<clipPath id="SVGID_26_">
					<use xlink:href="#SVGID_25_"  overflow="visible"/>
				</clipPath>
				<line clip-path="url(#SVGID_26_)" fill="none" stroke="#231F20" x1="174.182" y1="151.449" x2="172.648" y2="152.984"/>
			</g>
		</g>
	</g>
	<g>
		<g>
			<g>
				<defs>
					<rect id="SVGID_27_" x="68.283" y="-12.945" width="210.434" height="210.436"/>
				</defs>
				<clipPath id="SVGID_28_">
					<use xlink:href="#SVGID_27_"  overflow="visible"/>
				</clipPath>
				<line clip-path="url(#SVGID_28_)" fill="none" stroke="#231F20" x1="172.619" y1="151.449" x2="174.182" y2="153.011"/>
			</g>
		</g>
	</g>
	<g>
		<g>
			<g>
				<defs>
					<rect id="SVGID_29_" x="68.283" y="-12.945" width="210.434" height="210.436"/>
				</defs>
				<clipPath id="SVGID_30_">
					<use xlink:href="#SVGID_29_"  overflow="visible"/>
				</clipPath>
				<path clip-path="url(#SVGID_30_)" fill="#FFFFFF" d="M175.033,186.1c0,0.867-0.705,1.57-1.574,1.57s-1.574-0.703-1.574-1.57
					c0-0.871,0.705-1.576,1.574-1.576S175.033,185.229,175.033,186.1"/>
			</g>
		</g>
	</g>
	<g>
		<g>
			<g>
				<defs>
					<rect id="SVGID_31_" x="68.283" y="-12.945" width="210.434" height="210.436"/>
				</defs>
				<clipPath id="SVGID_32_">
					<use xlink:href="#SVGID_31_"  overflow="visible"/>
				</clipPath>
				<line clip-path="url(#SVGID_32_)" fill="none" stroke="#231F20" x1="174.227" y1="185.303" x2="172.691" y2="186.837"/>
			</g>
		</g>
	</g>
	<g>
		<g>
			<g>
				<defs>
					<rect id="SVGID_33_" x="68.283" y="-12.945" width="210.434" height="210.436"/>
				</defs>
				<clipPath id="SVGID_34_">
					<use xlink:href="#SVGID_33_"  overflow="visible"/>
				</clipPath>
				<line clip-path="url(#SVGID_34_)" fill="none" stroke="#231F20" x1="172.664" y1="185.303" x2="174.227" y2="186.865"/>
			</g>
		</g>
	</g>
	<g>
		<g>
			<g>
				<defs>
					<polygon id="SVGID_35_" points="100.806,-30.417 608.295,-372.11 260.827,220.505 55.358,175.056 					"/>
				</defs>
				<clipPath id="SVGID_36_">
					<use xlink:href="#SVGID_35_"  overflow="visible"/>
				</clipPath>
				
					<rect x="150.499" y="124.168" transform="matrix(-0.4359 -0.9 0.9 -0.4359 121.7808 330.5924)" clip-path="url(#SVGID_36_)" fill="#4E5897" width="27.992" height="5.926"/>
			</g>
		</g>
	</g>
	<g>
		<g>
			<g>
				<defs>
					<polygon id="SVGID_37_" points="630.458,622.654 118.174,284.749 72.725,79.276 278.195,33.827 					"/>
				</defs>
				<clipPath id="SVGID_38_">
					<use xlink:href="#SVGID_37_"  overflow="visible"/>
				</clipPath>
				
					<rect x="168.184" y="124.17" transform="matrix(0.4359 -0.9 0.9 0.4359 -11.6501 235.6764)" clip-path="url(#SVGID_38_)" fill="#4E5897" width="27.993" height="5.923"/>
			</g>
		</g>
	</g>
	<g>
		<g>
			<g>
				<defs>
					<rect id="SVGID_39_" x="68.283" y="-12.945" width="210.434" height="210.436"/>
				</defs>
				<clipPath id="SVGID_40_">
					<use xlink:href="#SVGID_39_"  overflow="visible"/>
				</clipPath>
				<polygon clip-path="url(#SVGID_40_)" fill="#4E5897" points="161.359,160.576 152.852,165.839 144.346,160.576 144.346,144.796 
					161.359,144.796 				"/>
			</g>
		</g>
	</g>
	<g>
		<g>
			<g>
				<defs>
					<rect id="SVGID_41_" x="68.283" y="-12.945" width="210.434" height="210.436"/>
				</defs>
				<clipPath id="SVGID_42_">
					<use xlink:href="#SVGID_41_"  overflow="visible"/>
				</clipPath>
				<polygon clip-path="url(#SVGID_42_)" fill="#545FA1" points="161.408,144.796 152.805,150.246 144.201,144.796 				"/>
			</g>
		</g>
	</g>
	<g>
		<g>
			<g>
				<defs>
					<rect id="SVGID_43_" x="68.283" y="-12.945" width="210.434" height="210.436"/>
				</defs>
				<clipPath id="SVGID_44_">
					<use xlink:href="#SVGID_43_"  overflow="visible"/>
				</clipPath>
				<path clip-path="url(#SVGID_44_)" fill="#FFFFFF" d="M154.426,147.162c0,0.869-0.705,1.574-1.574,1.574
					c-0.868,0-1.571-0.705-1.571-1.574c0-0.868,0.703-1.573,1.571-1.573C153.721,145.589,154.426,146.294,154.426,147.162"/>
			</g>
		</g>
	</g>
	<g>
		<g>
			<g>
				<defs>
					<rect id="SVGID_45_" x="68.283" y="-12.945" width="210.434" height="210.436"/>
				</defs>
				<clipPath id="SVGID_46_">
					<use xlink:href="#SVGID_45_"  overflow="visible"/>
				</clipPath>
				<line clip-path="url(#SVGID_46_)" fill="none" stroke="#231F20" x1="153.621" y1="146.369" x2="152.084" y2="147.904"/>
			</g>
		</g>
	</g>
	<g>
		<g>
			<g>
				<defs>
					<rect id="SVGID_47_" x="68.283" y="-12.945" width="210.434" height="210.436"/>
				</defs>
				<clipPath id="SVGID_48_">
					<use xlink:href="#SVGID_47_"  overflow="visible"/>
				</clipPath>
				<line clip-path="url(#SVGID_48_)" fill="none" stroke="#231F20" x1="152.057" y1="146.369" x2="153.621" y2="147.932"/>
			</g>
		</g>
	</g>
	<g>
		<g>
			<g>
				<defs>
					<rect id="SVGID_49_" x="68.283" y="-12.945" width="210.434" height="210.436"/>
				</defs>
				<clipPath id="SVGID_50_">
					<use xlink:href="#SVGID_49_"  overflow="visible"/>
				</clipPath>
				<polygon clip-path="url(#SVGID_50_)" fill="#4E5897" points="202.42,160.576 193.914,165.839 185.408,160.576 185.408,144.796 
					202.42,144.796 				"/>
			</g>
		</g>
	</g>
	<g>
		<g>
			<g>
				<defs>
					<rect id="SVGID_51_" x="68.283" y="-12.945" width="210.434" height="210.436"/>
				</defs>
				<clipPath id="SVGID_52_">
					<use xlink:href="#SVGID_51_"  overflow="visible"/>
				</clipPath>
				<polygon clip-path="url(#SVGID_52_)" fill="#545FA1" points="202.473,144.796 193.867,150.246 185.264,144.796 				"/>
			</g>
		</g>
	</g>
	<g>
		<g>
			<g>
				<defs>
					<rect id="SVGID_53_" x="68.283" y="-12.945" width="210.434" height="210.436"/>
				</defs>
				<clipPath id="SVGID_54_">
					<use xlink:href="#SVGID_53_"  overflow="visible"/>
				</clipPath>
				<path clip-path="url(#SVGID_54_)" fill="#FFFFFF" d="M195.488,147.162c0,0.869-0.705,1.574-1.574,1.574
					s-1.572-0.705-1.572-1.574c0-0.868,0.703-1.571,1.572-1.571S195.488,146.294,195.488,147.162"/>
			</g>
		</g>
	</g>
	<g>
		<g>
			<g>
				<defs>
					<rect id="SVGID_55_" x="68.283" y="-12.945" width="210.434" height="210.436"/>
				</defs>
				<clipPath id="SVGID_56_">
					<use xlink:href="#SVGID_55_"  overflow="visible"/>
				</clipPath>
				<line clip-path="url(#SVGID_56_)" fill="none" stroke="#231F20" x1="194.682" y1="146.369" x2="193.146" y2="147.904"/>
			</g>
		</g>
	</g>
	<g>
		<g>
			<g>
				<defs>
					<rect id="SVGID_57_" x="68.283" y="-12.945" width="210.434" height="210.436"/>
				</defs>
				<clipPath id="SVGID_58_">
					<use xlink:href="#SVGID_57_"  overflow="visible"/>
				</clipPath>
				<line clip-path="url(#SVGID_58_)" fill="none" stroke="#231F20" x1="193.117" y1="146.369" x2="194.682" y2="147.932"/>
			</g>
		</g>
	</g>
	<g>
		<g>
			<g>
				<defs>
					<rect id="SVGID_59_" x="68.283" y="-12.945" width="210.434" height="210.436"/>
				</defs>
				<clipPath id="SVGID_60_">
					<use xlink:href="#SVGID_59_"  overflow="visible"/>
				</clipPath>
				<path clip-path="url(#SVGID_60_)" fill="#FFFFFF" d="M175.074,175.645c0,0.869-0.705,1.573-1.572,1.573
					c-0.871,0-1.576-0.704-1.576-1.573s0.705-1.574,1.576-1.574C174.369,174.07,175.074,174.775,175.074,175.645"/>
			</g>
		</g>
	</g>
	<g>
		<g>
			<g>
				<defs>
					<rect id="SVGID_61_" x="68.283" y="-12.945" width="210.434" height="210.436"/>
				</defs>
				<clipPath id="SVGID_62_">
					<use xlink:href="#SVGID_61_"  overflow="visible"/>
				</clipPath>
				<line clip-path="url(#SVGID_62_)" fill="none" stroke="#231F20" x1="174.268" y1="174.85" x2="172.732" y2="176.385"/>
			</g>
		</g>
	</g>
	<g>
		<g>
			<g>
				<defs>
					<rect id="SVGID_63_" x="68.283" y="-12.945" width="210.434" height="210.436"/>
				</defs>
				<clipPath id="SVGID_64_">
					<use xlink:href="#SVGID_63_"  overflow="visible"/>
				</clipPath>
				<line clip-path="url(#SVGID_64_)" fill="none" stroke="#231F20" x1="172.705" y1="174.85" x2="174.268" y2="176.412"/>
			</g>
		</g>
	</g>
	<g>
		<g>
			<g>
				<defs>
					<rect id="SVGID_65_" x="68.283" y="-12.945" width="210.434" height="210.436"/>
				</defs>
				<clipPath id="SVGID_66_">
					<use xlink:href="#SVGID_65_"  overflow="visible"/>
				</clipPath>
				<path clip-path="url(#SVGID_66_)" fill="#FFFFFF" d="M175.074,165.189c0,0.871-0.705,1.574-1.572,1.574
					c-0.871,0-1.576-0.703-1.576-1.574c0-0.867,0.705-1.57,1.576-1.57C174.369,163.617,175.074,164.322,175.074,165.189"/>
			</g>
		</g>
	</g>
	<g>
		<g>
			<g>
				<defs>
					<rect id="SVGID_67_" x="68.283" y="-12.945" width="210.434" height="210.436"/>
				</defs>
				<clipPath id="SVGID_68_">
					<use xlink:href="#SVGID_67_"  overflow="visible"/>
				</clipPath>
				<line clip-path="url(#SVGID_68_)" fill="none" stroke="#231F20" x1="174.268" y1="164.396" x2="172.732" y2="165.932"/>
			</g>
		</g>
	</g>
	<g>
		<g>
			<g>
				<defs>
					<rect id="SVGID_69_" x="68.283" y="-12.945" width="210.434" height="210.436"/>
				</defs>
				<clipPath id="SVGID_70_">
					<use xlink:href="#SVGID_69_"  overflow="visible"/>
				</clipPath>
				<line clip-path="url(#SVGID_70_)" fill="none" stroke="#231F20" x1="172.705" y1="164.396" x2="174.268" y2="165.957"/>
			</g>
		</g>
	</g>
</g>
<path fill="#52382E" d="M132.193,55.116c0-0.01-2.978-19.92,6.796-35.23c9.774-15.312,30.021-14.396,35.235-14.56
	c4.729-0.147,9.48,0.406,14.088,1.457c5.655,1.291,10.901,3.277,15.242,7.238c4.826,4.405,7.293,10.45,8.172,16.825
	c1.043,7.556,1.532,9.943,1.506,17.57c-0.006,2.233-0.045,4.477-0.273,6.7c0,0-2.703-15.126-16.587-19.656
	c-6.047-1.972-12.259,1.002-15.558,3.468c-9.533-7.279-29.479-3.412-37.75,3.572c-3.016,2.549-5.724,5.471-8.113,8.613
	C134.395,51.846,132.805,54.214,132.193,55.116"/>
<path fill="#CCCCCC" d="M212.998,165.59c0,2.327-1.902,4.229-4.227,4.229H138.75c-2.325,0-4.228-1.9-4.228-4.229v-43.945
	c0-2.324,1.902-4.228,4.228-4.228h70.021c2.324,0,4.227,1.903,4.227,4.228V165.59L212.998,165.59z"/>
<path fill="#FFFFFF" d="M178.643,146.995c-0.182,0.421-0.399,0.81-0.649,1.168c-0.343,0.487-0.621,0.823-0.834,1.011
	c-0.336,0.309-0.693,0.463-1.076,0.475c-0.274,0-0.608-0.08-0.998-0.24c-0.39-0.157-0.744-0.235-1.067-0.235
	c-0.344,0-0.709,0.078-1.103,0.235c-0.392,0.158-0.71,0.244-0.95,0.25c-0.367,0.017-0.732-0.147-1.103-0.485
	c-0.233-0.206-0.526-0.554-0.876-1.051c-0.375-0.529-0.681-1.142-0.924-1.839c-0.258-0.756-0.391-1.484-0.391-2.191
	c0-0.81,0.177-1.509,0.524-2.093c0.273-0.472,0.643-0.843,1.104-1.113c0.458-0.272,0.953-0.411,1.486-0.42
	c0.294,0,0.675,0.091,1.152,0.269c0.474,0.18,0.783,0.27,0.911,0.27c0.102,0,0.44-0.107,1.015-0.316
	c0.541-0.192,0.998-0.275,1.377-0.244c1.014,0.082,1.779,0.482,2.289,1.209c-0.91,0.552-1.361,1.322-1.353,2.312
	c0.009,0.772,0.287,1.413,0.839,1.923c0.25,0.235,0.524,0.415,0.836,0.549C178.789,146.631,178.721,146.814,178.643,146.995
	L178.643,146.995z M176.311,137.814c0,0.604-0.223,1.172-0.662,1.691c-0.528,0.622-1.174,0.98-1.87,0.928
	c-0.007-0.074-0.013-0.149-0.013-0.232c0-0.577,0.25-1.201,0.7-1.706c0.226-0.257,0.511-0.47,0.854-0.644
	c0.345-0.17,0.671-0.26,0.978-0.274C176.309,137.652,176.311,137.734,176.311,137.814L176.311,137.814z"/>
<line fill="none" x1="25.045" y1="203.055" x2="321.641" y2="203.055"/>
<polygon fill="#F6E5D3" points="-271,-287.5 -269,-287.5 -269,-287.5 "/>
<rect fill="none" width="347" height="200"/>
<polyline fill="#2F74A6" points="321.641,249.574 25.045,249.574 25.045,169.841 321.641,169.841 "/>
<g>
	<linearGradient id="SVGID_71_" gradientUnits="userSpaceOnUse" x1="173.4985" y1="173.8408" x2="173.4985" y2="186.0391">
		<stop  offset="0" style="stop-color:#000000"/>
		<stop  offset="1" style="stop-color:#000000;stop-opacity:0"/>
	</linearGradient>
	<rect x="13.191" y="173.841" fill="url(#SVGID_71_)" width="320.616" height="12.198"/>
	<rect x="13.191" y="169.841" fill="#2F74A6" width="320.616" height="12.198"/>
</g>
<rect fill="none" width="347" height="200"/>
</svg>
