<?xml version="1.0" encoding="utf-8"?>
<!-- Generator: Adobe Illustrator 16.0.4, SVG Export Plug-In . SVG Version: 6.00 Build 0)  -->
<!DOCTYPE svg PUBLIC "-//W3C//DTD SVG 1.1//EN" "http://www.w3.org/Graphics/SVG/1.1/DTD/svg11.dtd">
<svg version="1.1" id="Layer_1" xmlns="http://www.w3.org/2000/svg" xmlns:xlink="http://www.w3.org/1999/xlink" x="0px" y="0px"
	 width="630.307px" height="206.382px" viewBox="0 0 630.307 206.382" enable-background="new 0 0 630.307 206.382"
	 xml:space="preserve">
<g>
	<path fill="#21242D" d="M343.537,0h31.239v74.837h0.553c8.496-14.171,26.307-22.962,42.203-22.962
		c44.664,0,66.32,35.164,66.32,77.975c0,39.393-19.18,76.532-61.117,76.532c-19.182,0-39.736-4.81-49.059-24.093h-0.541v20.138
		h-29.601V0.004L343.537,0z M413.417,77.39c-26.299,0-39.736,20.699-39.736,51.882c0,29.477,14.531,51.602,39.736,51.602
		c28.506,0,39.193-26.085,39.193-51.602c-0.02-26.643-13.451-51.882-39.201-51.882"/>
	<path fill="#21242D" d="M599.069,104.898c-2.469-17.861-15.072-27.507-32.338-27.507c-16.176,0-38.918,8.793-38.918,53.304
		c0,24.383,10.41,50.187,37.547,50.187c18.084,0,30.686-12.49,33.709-33.47h31.238c-5.758,37.989-28.498,58.97-64.947,58.97
		c-44.398,0-68.787-32.596-68.787-75.687c0-44.224,23.295-78.812,69.883-78.812c32.885,0,60.846,17.008,63.852,53.015h-31.189
		H599.069z"/>
	<polygon fill="#21242D" points="234.316,201.985 0,201.985 109.421,0 343.74,0 	"/>
</g>
</svg>
