<?xml version="1.0" encoding="utf-8"?>
<!-- Generator: Adobe Illustrator 16.0.4, SVG Export Plug-In . SVG Version: 6.00 Build 0)  -->
<!DOCTYPE svg PUBLIC "-//W3C//DTD SVG 1.1//EN" "http://www.w3.org/Graphics/SVG/1.1/DTD/svg11.dtd">
<svg version="1.1" id="Layer_1" xmlns="http://www.w3.org/2000/svg" xmlns:xlink="http://www.w3.org/1999/xlink" x="0px" y="0px"
	 width="347px" height="200px" viewBox="491 0 347 200" enable-background="new 491 0 347 200" xml:space="preserve">
<path fill="#FF605F" d="M11.164,94.594v-12.9l77.6-52.632v16.429L26.141,87.724v0.829l62.623,42.232v16.434L11.164,94.594z"/>
<path fill="#FF605F" d="M199.928,9.504h15.398l-68.234,180.992h-15.397L199.928,9.504z"/>
<path fill="#FF605F" d="M258.236,130.786l62.625-42.232v-0.829l-62.625-42.233v-16.43l77.6,52.632v12.899l-77.6,52.626V130.786z"/>
<path fill="#FFFFFF" d="M665.957,189.174c0,0.825-0.67,1.495-1.494,1.495c-0.828,0-1.496-0.67-1.496-1.495
	c0-0.826,0.668-1.495,1.496-1.495C665.287,187.679,665.957,188.348,665.957,189.174"/>
<line fill="none" stroke="#231F20" x1="665.191" y1="188.417" x2="663.732" y2="189.876"/>
<line fill="none" stroke="#231F20" x1="663.707" y1="188.417" x2="665.191" y2="189.903"/>
<g>
	<circle fill="#FF605F" cx="664.5" cy="98.543" r="95.543"/>
	<g>
		<defs>
			<rect id="SVGID_1_" x="564.5" y="3" width="200" height="200"/>
		</defs>
		<clipPath id="SVGID_2_">
			<use xlink:href="#SVGID_1_"  overflow="visible"/>
		</clipPath>
		<path clip-path="url(#SVGID_2_)" fill="#F6E5D3" d="M699.645,61.082V47.866c0-3.833-0.617-7.522-1.752-10.977h-66.785
			c-1.135,3.455-1.752,7.143-1.752,10.977v13.216c-5.959,0-10.791,4.833-10.791,10.793c0,5.961,4.832,10.793,10.791,10.793
			c0.025,0,0.051-0.002,0.078-0.002c0.947,14.648,10.865,26.85,24.318,31.166v33.713h21.387v-33.677
			c13.51-4.285,23.48-16.515,24.428-31.202c0.027,0,0.053,0.002,0.078,0.002c5.961,0,10.793-4.833,10.793-10.793
			C710.438,65.915,705.605,61.082,699.645,61.082"/>
		<path clip-path="url(#SVGID_2_)" fill="#52382E" d="M630.553,89.296c3.916,15.092,17.629,26.237,33.947,26.237
			s30.033-11.145,33.949-26.237H630.553z"/>
		<path clip-path="url(#SVGID_2_)" fill="#52382E" d="M653.406,69.905c0,1.942-1.574,3.517-3.518,3.517
			c-1.941,0-3.516-1.575-3.516-3.517c0-1.943,1.574-3.517,3.516-3.517C651.832,66.388,653.406,67.962,653.406,69.905"/>
		<path clip-path="url(#SVGID_2_)" fill="#52382E" d="M682.629,69.905c0,1.942-1.576,3.517-3.518,3.517
			c-1.943,0-3.516-1.575-3.516-3.517c0-1.943,1.572-3.517,3.516-3.517C681.053,66.388,682.629,67.962,682.629,69.905"/>
		<path clip-path="url(#SVGID_2_)" fill="#F5AD95" d="M664.5,96.086c-3.053,0-5.717-1.659-7.143-4.125
			c-0.701,1.214-1.105,2.623-1.105,4.125c0,4.557,3.691,8.25,8.248,8.25s8.25-3.693,8.25-8.25c0-1.502-0.404-2.91-1.107-4.125
			C670.219,94.427,667.553,96.086,664.5,96.086"/>
		<polygon clip-path="url(#SVGID_2_)" fill="#F5AD95" points="660.553,85.811 664.5,73.421 668.447,85.811 		"/>
	</g>
	<g>
		<defs>
			<path id="SVGID_3_" d="M573.275,103.948c0,50.383,40.842,91.225,91.225,91.225c50.385,0,91.227-40.842,91.227-91.225
				S714.885,12.723,664.5,12.723C614.117,12.723,573.275,53.565,573.275,103.948"/>
		</defs>
		<clipPath id="SVGID_4_">
			<use xlink:href="#SVGID_3_"  overflow="visible"/>
		</clipPath>
		<path clip-path="url(#SVGID_4_)" fill="#5C68B0" d="M675.135,125.523L664.5,147.179l-10.734-21.637
			c-24.953,4.985-43.756,27.012-43.756,53.431c0,30.094,24.396,54.49,54.49,54.49c30.096,0,54.49-24.396,54.49-54.49
			C718.99,152.519,700.137,130.469,675.135,125.523"/>
	</g>
	<rect x="662.525" y="147.179" fill="#4E5897" width="3.949" height="47.908"/>
	<path fill="#FFFFFF" d="M665.996,150.062c0,0.827-0.67,1.497-1.496,1.497s-1.494-0.67-1.494-1.497c0-0.824,0.668-1.493,1.494-1.493
		S665.996,149.237,665.996,150.062"/>
	<line fill="none" stroke="#231F20" x1="665.23" y1="149.308" x2="663.771" y2="150.767"/>
	<line fill="none" stroke="#231F20" x1="663.744" y1="149.308" x2="665.23" y2="150.792"/>
	<path fill="#FFFFFF" d="M665.914,159.997c0,0.827-0.668,1.496-1.494,1.496s-1.496-0.669-1.496-1.496
		c0-0.825,0.67-1.495,1.496-1.495S665.914,159.172,665.914,159.997"/>
	<line fill="none" stroke="#231F20" x1="665.15" y1="159.242" x2="663.689" y2="160.702"/>
	<line fill="none" stroke="#231F20" x1="663.664" y1="159.242" x2="665.15" y2="160.728"/>
	
		<rect x="642.638" y="133.313" transform="matrix(0.4359 0.9 -0.9 0.4359 492.5386 -513.5558)" fill="#4E5897" width="26.603" height="5.627"/>
	
		<rect x="659.449" y="133.313" transform="matrix(-0.4359 0.9 -0.9 -0.4359 1088.5066 -410.0141)" fill="#4E5897" width="26.603" height="5.627"/>
	<polygon fill="#4E5897" points="652.961,167.918 644.877,172.918 636.791,167.918 636.791,152.919 652.961,152.919 	"/>
	<polygon fill="#545FA1" points="653.008,152.919 644.832,158.101 636.656,152.919 	"/>
	<path fill="#FFFFFF" d="M646.371,155.169c0,0.826-0.67,1.495-1.494,1.495c-0.826,0-1.496-0.669-1.496-1.495s0.67-1.495,1.496-1.495
		C645.701,153.674,646.371,154.343,646.371,155.169"/>
	<line fill="none" stroke="#231F20" x1="645.605" y1="154.414" x2="644.146" y2="155.872"/>
	<line fill="none" stroke="#231F20" x1="644.121" y1="154.414" x2="645.605" y2="155.899"/>
	<polygon fill="#4E5897" points="691.988,167.918 683.902,172.918 675.816,167.918 675.816,152.919 691.988,152.919 	"/>
	<polygon fill="#545FA1" points="692.035,152.919 683.857,158.101 675.682,152.919 	"/>
	<path fill="#FFFFFF" d="M685.398,155.169c0,0.826-0.672,1.495-1.496,1.495c-0.826,0-1.496-0.669-1.496-1.495
		s0.67-1.495,1.496-1.495C684.727,153.674,685.398,154.343,685.398,155.169"/>
	<line fill="none" stroke="#231F20" x1="684.631" y1="154.414" x2="683.174" y2="155.872"/>
	<line fill="none" stroke="#231F20" x1="683.148" y1="154.414" x2="684.631" y2="155.899"/>
	<path fill="#FFFFFF" d="M665.996,182.238c0,0.825-0.67,1.496-1.496,1.496s-1.494-0.671-1.494-1.496
		c0-0.826,0.668-1.495,1.494-1.495S665.996,181.412,665.996,182.238"/>
	<line fill="none" stroke="#231F20" x1="665.23" y1="181.482" x2="663.771" y2="182.941"/>
	<line fill="none" stroke="#231F20" x1="663.744" y1="181.482" x2="665.23" y2="182.968"/>
	<path fill="#FFFFFF" d="M665.996,172.304c0,0.825-0.67,1.495-1.496,1.495s-1.494-0.67-1.494-1.495c0-0.827,0.668-1.495,1.494-1.495
		S665.996,171.477,665.996,172.304"/>
	<line fill="none" stroke="#231F20" x1="665.23" y1="171.547" x2="663.771" y2="173.006"/>
	<line fill="none" stroke="#231F20" x1="663.744" y1="171.547" x2="665.23" y2="173.033"/>
	<rect x="564.5" y="3" fill="none" width="200" height="200"/>
	<path fill="#52382E" d="M626.246,67.687c0-0.009-2.826-18.933,6.459-33.484c9.291-14.555,28.537-13.682,33.49-13.837
		c4.494-0.141,9.012,0.385,13.389,1.384c5.377,1.227,10.361,3.114,14.486,6.879c4.588,4.187,6.932,9.933,7.766,15.991
		c0.992,7.181,1.459,9.451,1.434,16.7c-0.008,2.122-0.043,4.255-0.262,6.367c0,0-2.57-14.377-15.764-18.683
		c-5.748-1.874-11.652,0.953-14.787,3.296c-9.061-6.917-28.018-3.242-35.877,3.396c-2.867,2.422-5.439,5.199-7.711,8.185
		C628.34,64.578,626.828,66.83,626.246,67.687"/>
</g>
</svg>
