<?xml version="1.0" encoding="utf-8"?>
<!-- Generator: Adobe Illustrator 16.0.4, SVG Export Plug-In . SVG Version: 6.00 Build 0)  -->
<!DOCTYPE svg PUBLIC "-//W3C//DTD SVG 1.1//EN" "http://www.w3.org/Graphics/SVG/1.1/DTD/svg11.dtd">
<svg version="1.1" id="Layer_1" xmlns="http://www.w3.org/2000/svg" xmlns:xlink="http://www.w3.org/1999/xlink" x="0px" y="0px"
	 width="20px" height="20px" viewBox="0 0 20 20" enable-background="new 0 0 20 20" xml:space="preserve">
<g>
	<g>
		<path fill="#CDCDCD" d="M10,13.75c3.102,0,5.625-3.084,5.625-6.875C15.625,3.085,13.102,0,10,0C8.471,0,7.041,0.733,5.976,2.065
			c-1.033,1.291-1.601,2.999-1.601,4.81C4.375,10.666,6.898,13.75,10,13.75z M10,1.25c2.412,0,4.375,2.523,4.375,5.625
			S12.412,12.5,10,12.5S5.625,9.977,5.625,6.875C5.625,3.773,7.587,1.25,10,1.25z M14.375,12.5c-0.346,0-0.625,0.28-0.625,0.625
			s0.279,0.625,0.625,0.625c2.412,0,4.375,1.963,4.375,4.375c0,0.345-0.281,0.625-0.625,0.625H1.875
			c-0.344,0-0.625-0.28-0.625-0.625c0-2.412,1.963-4.375,4.375-4.375c0.346,0,0.625-0.28,0.625-0.625S5.971,12.5,5.625,12.5
			C2.523,12.5,0,15.023,0,18.125C0,19.159,0.841,20,1.875,20h16.25C19.159,20,20,19.159,20,18.125
			C20,15.023,17.477,12.5,14.375,12.5z"/>
	</g>
</g>
</svg>
