<?xml version="1.0" encoding="utf-8"?>
<!-- Generator: Adobe Illustrator 16.0.4, SVG Export Plug-In . SVG Version: 6.00 Build 0)  -->
<!DOCTYPE svg PUBLIC "-//W3C//DTD SVG 1.1//EN" "http://www.w3.org/Graphics/SVG/1.1/DTD/svg11.dtd">
<svg version="1.1" id="Layer_1" xmlns="http://www.w3.org/2000/svg" xmlns:xlink="http://www.w3.org/1999/xlink" x="0px" y="0px"
	 width="347px" height="200px" viewBox="0 0 347 200" enable-background="new 0 0 347 200" xml:space="preserve">
<g>
	<g>
		<path id="i-2180" fill="#FF605F" d="M176.088,0.697c-0.89,0.119-22.229,3.068-59.531,13.729
			c-31.754,9.07-58.637,22.385-59.766,22.952l-2.513,1.246v118.765c-3.296-1.619-7.716-2.668-13.689-2.695
			c-19.246,0-40.138,10.871-40.581,27.064c-0.132,4.752,1.381,8.895,4.372,11.986c3.885,4.025,10.193,6.189,18.246,6.256h0.381l0,0
			c8.964,0,18.77-2.518,26.224-6.729c9.163-5.187,14.206-12.441,14.206-20.455c0-0.602-0.034-1.242-0.097-1.916V90.573
			c7.158-3.648,30.033-14.797,55.703-22.133c26.335-7.521,44.74-11.158,53.115-12.623l-0.014,83.501
			c-3.31-1.642-7.777-2.717-13.821-2.738c-19.186,0-40.016,10.871-40.448,27.064c-0.133,4.795,1.385,8.969,4.371,12.062
			c3.897,4.035,9.974,6.114,18.048,6.181h0.381c0.004,0,0.004,0,0.004,0c8.964,0,18.791-2.518,26.265-6.729
			c9.197-5.182,14.26-12.442,14.26-20.454L181.225,0L176.088,0.697z"/>
	</g>
	<g>
		<path id="i-2181" fill="#FF605F" d="M310.383,45.191c-12.838-3.339-17.69-5.294-17.69-12.64h-9.053l-0.077,124.889
			c-3.302-1.613-7.718-2.67-13.688-2.696c-19.222,0-40.099,10.864-40.531,27.03c-0.134,4.746,1.377,8.883,4.362,11.978
			c3.884,4.021,10.183,6.179,18.221,6.249h0.385h0.007c8.952,0,18.745-2.51,26.188-6.727c9.147-5.176,14.187-12.429,14.187-20.428
			c0-0.598-0.034-1.238-0.089-1.9l0.059-91.202c4.052,2.335,8.9,3.673,13.28,4.871c11.426,3.146,18.43,5.595,18.43,15.822
			c-0.008,12.333-8.489,29.488-8.574,29.664l7.668,4.729c1.782-2.36,3.479-4.579,5.083-6.674
			C339.261,114.198,347,104.119,347,86.858C347,54.727,325.835,49.22,310.383,45.191z"/>
	</g>
</g>
</svg>
