<?xml version="1.0" encoding="utf-8"?>
<!-- Generator: Adobe Illustrator 16.0.4, SVG Export Plug-In . SVG Version: 6.00 Build 0)  -->
<!DOCTYPE svg PUBLIC "-//W3C//DTD SVG 1.1//EN" "http://www.w3.org/Graphics/SVG/1.1/DTD/svg11.dtd">
<svg version="1.1" id="Layer_1" xmlns="http://www.w3.org/2000/svg" xmlns:xlink="http://www.w3.org/1999/xlink" x="0px" y="0px"
	 width="337px" height="200px" viewBox="481 0 337 200" enable-background="new 481 0 337 200" xml:space="preserve">
<g>
	<path id="i-2187" fill="#34CF75" d="M649.5,0.75c-54.723,0-99.25,44.526-99.25,99.25c0,54.723,44.527,99.25,99.25,99.25
		s99.25-44.527,99.25-99.25C748.75,45.276,704.223,0.75,649.5,0.75z M649.5,190.979c-50.167,0-90.979-40.812-90.979-90.979
		c0-50.167,40.812-90.979,90.979-90.979S740.479,49.833,740.479,100C740.479,150.167,699.667,190.979,649.5,190.979z M649.5,54.51
		c-25.079,0-45.49,20.409-45.49,45.49c0,25.079,20.411,45.489,45.49,45.489s45.49-20.41,45.49-45.489
		C694.99,74.919,674.579,54.51,649.5,54.51z M649.5,137.219c-20.523,0-37.219-16.695-37.219-37.219s16.695-37.219,37.219-37.219
		S686.719,79.477,686.719,100S670.023,137.219,649.5,137.219z M649.5,151.003v8.27c-32.68,0-59.272-26.593-59.272-59.272h8.27
		C598.497,128.124,621.376,151.003,649.5,151.003z M708.772,100h-8.27c0-28.125-22.879-51.006-51.003-51.006v-8.271
		C682.18,40.723,708.772,67.318,708.772,100z M649.5,164.79v8.27c-40.284,0-73.06-32.775-73.06-73.06h8.27
		C584.71,135.725,613.774,164.79,649.5,164.79z M722.56,100h-8.27c0-35.727-29.064-64.786-64.79-64.786v-8.271
		C689.784,26.944,722.56,59.716,722.56,100z M649.5,178.572v8.271c-47.884,0-86.844-38.96-86.844-86.844h8.271
		C570.928,143.325,606.175,178.572,649.5,178.572z M736.344,100h-8.271c0-43.327-35.247-78.573-78.572-78.573v-8.271
		C697.384,13.156,736.344,52.115,736.344,100z M649.5,87.594c-6.842,0-12.406,5.564-12.406,12.406
		c0,6.841,5.564,12.406,12.406,12.406s12.406-5.565,12.406-12.406C661.906,93.158,656.342,87.594,649.5,87.594z M649.5,104.135
		c-2.281,0-4.135-1.854-4.135-4.135c0-2.283,1.854-4.136,4.135-4.136s4.135,1.853,4.135,4.136
		C653.635,102.281,651.781,104.135,649.5,104.135z"/>
</g>
</svg>
