<?xml version="1.0" encoding="utf-8"?>
<!-- Generator: Adobe Illustrator 16.0.4, SVG Export Plug-In . SVG Version: 6.00 Build 0)  -->
<!DOCTYPE svg PUBLIC "-//W3C//DTD SVG 1.1//EN" "http://www.w3.org/Graphics/SVG/1.1/DTD/svg11.dtd">
<svg version="1.1" id="Layer_1" xmlns="http://www.w3.org/2000/svg" xmlns:xlink="http://www.w3.org/1999/xlink" x="0px" y="0px"
	 width="96px" height="54px" viewBox="0 0 96 54" enable-background="new 0 0 96 54" xml:space="preserve">
<g>
	<path fill="#21242D" d="M80.856,23.421c-2.055,0-3.99,0.393-5.807,1.178c-0.389-4.53-1.795-8.675-4.223-12.435
		c-2.426-3.76-5.605-6.728-9.537-8.902S53.114,0,48.558,0c-1.965,0-3.945,0.242-5.94,0.725c-0.924,0.302-1.385,1.238-1.385,2.809
		v49.288c0,0.181,0.066,0.394,0.2,0.634c0.135,0.242,0.335,0.408,0.604,0.499L80.901,54c4.139,0,7.691-1.496,10.654-4.485
		C94.518,46.525,96,42.917,96,38.688c0-4.198-1.482-7.792-4.445-10.782C88.592,24.916,85.026,23.421,80.856,23.421z"/>
	<path fill="#21242D" d="M3.261,27.815c-0.894,0-1.66,0.325-2.301,0.975C0.32,29.438,0,30.231,0,31.167v13.138
		c0,1.208,0.432,2.121,1.296,2.74c0.863,0.619,1.786,0.838,2.77,0.657c0.923-0.181,1.57-0.513,1.943-0.997
		c0.372-0.482,0.558-1.283,0.558-2.4V31.167c0-0.937-0.32-1.729-0.96-2.378C4.966,28.14,4.185,27.815,3.261,27.815z"/>
	<path fill="#21242D" d="M13.535,15.992c-0.894,0-1.66,0.324-2.3,0.974c-0.641,0.649-0.961,1.427-0.961,2.333v30.624
		c0,0.876,0.306,1.533,0.916,1.971s1.393,0.657,2.345,0.657c0.983,0,1.779-0.22,2.391-0.657c0.61-0.438,0.915-1.095,0.915-1.971
		V19.298c0-0.906-0.32-1.684-0.96-2.333C15.24,16.316,14.458,15.992,13.535,15.992z"/>
	<path fill="#21242D" d="M23.854,20.023c-0.923,0-1.713,0.332-2.367,0.997c-0.655,0.664-0.982,1.465-0.982,2.401v27.951h-0.001
		c0,0.877,0.313,1.533,0.938,1.971C22.067,53.781,22.872,54,23.854,54c0.953,0,1.735-0.219,2.346-0.657
		c0.61-0.438,0.916-1.094,0.916-1.971V23.421c0-0.936-0.32-1.737-0.961-2.401C25.515,20.355,24.748,20.023,23.854,20.023z"/>
	<path fill="#21242D" d="M35.111,1.902c-0.982-0.242-1.95,0.045-2.903,0.861s-1.43,1.963-1.43,3.443v45.302h0.001
		c0,1.66,1.102,2.491,3.306,2.491c2.203,0,3.305-0.831,3.305-2.491V6.206C37.39,3.669,36.631,2.235,35.111,1.902z"/>
</g>
</svg>
