<?xml version="1.0" encoding="utf-8"?>
<!-- Generator: Adobe Illustrator 16.0.4, SVG Export Plug-In . SVG Version: 6.00 Build 0)  -->
<!DOCTYPE svg PUBLIC "-//W3C//DTD SVG 1.1//EN" "http://www.w3.org/Graphics/SVG/1.1/DTD/svg11.dtd">
<svg version="1.1" id="Layer_1" xmlns="http://www.w3.org/2000/svg" xmlns:xlink="http://www.w3.org/1999/xlink" x="0px" y="0px"
	 width="337px" height="200px" viewBox="0 0 337 200" enable-background="new 0 0 337 200" xml:space="preserve">
<g>
	<path fill="#34CF75" d="M200,140c0,33.137-26.863,60-60,60H60c-33.137,0-60-26.863-60-60V60C0,26.863,26.863,0,60,0h80
		c33.137,0,60,26.863,60,60V140z"/>
</g>
<text transform="matrix(1 0 0 1 77.7021 111.8325)" fill="#FFFFFF" font-family="'Montserrat-Bold'" font-size="42">UI</text>
<g>
	<g opacity="0.5">
		<path fill="#E6E7E7" d="M337,140c0,33.137-26.863,60-60,60h-80c-33.137,0-60-26.863-60-60V60c0-33.137,26.863-60,60-60h80
			c33.137,0,60,26.863,60,60V140z"/>
	</g>
	<text transform="matrix(1 0 0 1 214.7031 111.8892)" fill="#FF605F" font-family="'Montserrat-Bold'" font-size="42">UX</text>
</g>
</svg>
