<?xml version="1.0" encoding="utf-8"?>
<!-- Generator: Adobe Illustrator 16.0.4, SVG Export Plug-In . SVG Version: 6.00 Build 0)  -->
<!DOCTYPE svg PUBLIC "-//W3C//DTD SVG 1.1//EN" "http://www.w3.org/Graphics/SVG/1.1/DTD/svg11.dtd">
<svg version="1.1" id="Layer_1" xmlns="http://www.w3.org/2000/svg" xmlns:xlink="http://www.w3.org/1999/xlink" x="0px" y="0px"
	 width="347px" height="200px" viewBox="0 0 347 200" enable-background="new 0 0 347 200" xml:space="preserve">
<g>
	<path fill="#FF605F" d="M200,140c0,33.137-26.863,60-60,60H60c-33.137,0-60-26.863-60-60V60C0,26.863,26.863,0,60,0h80
		c33.137,0,60,26.863,60,60V140z"/>
</g>
<g opacity="0.5">
	<path fill="#E2E3E3" d="M347,140c0,33.137-26.863,60-60,60h-80c-33.137,0-60-26.863-60-60V60c0-33.137,26.863-60,60-60h80
		c33.137,0,60,26.863,60,60V140z"/>
</g>
<g enable-background="new    ">
	<path fill="#FFFFFF" d="M108.107,99.481c0,7.771-5.167,12.687-13.4,12.687c-8.275,0-13.568-4.915-13.568-12.687V82.427h7.477
		v17.055c0,3.991,2.562,6.428,6.133,6.428c3.529,0,5.923-2.437,5.923-6.428V82.427h7.436V99.481z"/>
	<path fill="#FFFFFF" d="M113.479,111.832V82.427h7.478v29.405H113.479z"/>
</g>
<g>
	<g enable-background="new    ">
		<path fill="#FF605F" d="M250.108,99.539c0,7.771-5.167,12.687-13.4,12.687c-8.275,0-13.568-4.915-13.568-12.687V82.484h7.478
			v17.055c0,3.991,2.562,6.428,6.133,6.428c3.529,0,5.923-2.437,5.923-6.428V82.484h7.436V99.539z"/>
		<path fill="#FF605F" d="M283.078,111.89h-8.947l-6.344-9.367l-6.342,9.367h-8.696l10.502-15.039l-9.829-14.366h8.695l5.67,8.569
			l5.672-8.569h8.779l-9.703,14.03L283.078,111.89z"/>
	</g>
</g>
</svg>
